<svg xmlns="http://www.w3.org/2000/svg" xmlns:xlink="http://www.w3.org/1999/xlink" width="1920" zoomAndPan="magnify" viewBox="0 0 1440 809.999993" height="1080" preserveAspectRatio="xMidYMid meet" version="1.0"><defs><g/><clipPath id="04d78b3397"><path d="M 409.640625 357 L 735 357 L 735 643.585938 L 409.640625 643.585938 Z M 409.640625 357 " clip-rule="nonzero"/></clipPath><clipPath id="276d77bb45"><path d="M 734 207.835938 L 1058.390625 207.835938 L 1058.390625 494 L 734 494 Z M 734 207.835938 " clip-rule="nonzero"/></clipPath></defs><g clip-path="url(#04d78b3397)"><path fill="#ff7926" d="M 628.085938 560.105469 L 628.085938 599.546875 L 449.257812 516.566406 L 449.257812 484.566406 L 628.085938 401.582031 L 628.085938 441.03125 L 492.847656 500.191406 L 492.847656 500.9375 Z M 734.292969 357.757812 L 435.234375 357.757812 C 421.113281 357.757812 409.667969 369.1875 409.667969 383.296875 L 409.667969 617.839844 C 409.667969 631.941406 421.113281 643.371094 435.234375 643.371094 L 651.273438 643.371094 L 734.292969 357.757812 " fill-opacity="1" fill-rule="nonzero"/></g><g clip-path="url(#276d77bb45)"><path fill="#52dde6" d="M 1018.84375 367.902344 L 840.019531 449.765625 L 840.019531 410.316406 L 978.234375 351.15625 L 978.234375 350.414062 L 840.019531 291.242188 L 840.019531 251.804688 L 1018.84375 333.667969 Z M 817.316406 207.976562 L 734.292969 493.59375 L 1032.871094 493.59375 C 1046.988281 493.59375 1058.433594 482.160156 1058.433594 468.054688 L 1058.433594 233.507812 C 1058.433594 219.410156 1046.988281 207.976562 1032.871094 207.976562 L 817.316406 207.976562 " fill-opacity="1" fill-rule="nonzero"/></g><g fill="#ffffff" fill-opacity="1"><g transform="translate(430.201419, 712.191656)"><g><path d="M 22.480469 -19.492188 C 28.097656 -20.273438 32.367188 -24.96875 32.367188 -30.730469 C 32.367188 -37.417969 27.03125 -42.683594 20.488281 -42.683594 L 5.191406 -42.683594 L 5.191406 0 L 9.746094 0 L 9.746094 -19.277344 L 17.785156 -19.277344 L 29.878906 0 L 35.070312 0 Z M 9.746094 -23.617188 L 9.746094 -38.128906 L 20.203125 -38.128906 C 24.472656 -38.128906 27.816406 -35.140625 27.816406 -30.875 C 27.816406 -26.535156 24.542969 -23.617188 20.203125 -23.617188 Z M 9.746094 -23.617188 "/></g></g></g><g fill="#ffffff" fill-opacity="1"><g transform="translate(484.977217, 712.191656)"><g><path d="M 30.945312 0 L 35.925781 0 L 20.488281 -42.683594 L 15.4375 -42.683594 L 0 0 L 4.980469 0 L 8.464844 -9.960938 L 27.460938 -9.960938 Z M 9.960938 -14.296875 L 17.996094 -37.277344 L 25.964844 -14.296875 Z M 9.960938 -14.296875 "/></g></g></g><g fill="#ffffff" fill-opacity="1"><g transform="translate(539.966413, 712.191656)"><g><path d="M 15.933594 0.570312 C 23.191406 0.570312 29.09375 -3.769531 29.09375 -11.238281 C 29.09375 -25.75 8.324219 -22.195312 8.324219 -32.367188 C 8.324219 -36.636719 11.808594 -38.699219 15.792969 -38.699219 C 19.066406 -38.699219 21.769531 -37.347656 23.476562 -34.929688 L 27.03125 -37.917969 C 24.683594 -40.902344 20.558594 -43.25 15.648438 -43.25 C 9.105469 -43.25 3.769531 -38.984375 3.769531 -32.011719 C 3.769531 -18.28125 24.542969 -21.695312 24.542969 -11.097656 C 24.542969 -6.542969 20.773438 -3.984375 16.007812 -3.984375 C 11.167969 -3.984375 7.683594 -6.617188 6.1875 -10.527344 L 2.0625 -8.109375 C 4.269531 -2.84375 9.605469 0.570312 15.933594 0.570312 Z M 15.933594 0.570312 "/></g></g></g><g fill="#ffffff" fill-opacity="1"><g transform="translate(590.1897, 712.191656)"><g><path d="M 33.292969 -42.683594 L 33.292969 -23.617188 L 9.746094 -23.617188 L 9.746094 -42.683594 L 5.191406 -42.683594 L 5.191406 0 L 9.746094 0 L 9.746094 -19.066406 L 33.292969 -19.066406 L 33.292969 0 L 37.84375 0 L 37.84375 -42.683594 Z M 33.292969 -42.683594 "/></g></g></g><g fill="#ffffff" fill-opacity="1"><g transform="translate(652.292183, 712.191656)"><g><path d="M 5.546875 0 L 10.101562 0 L 10.101562 -42.683594 L 5.546875 -42.683594 Z M 5.546875 0 "/></g></g></g><g fill="#ffffff" fill-opacity="1"><g transform="translate(686.937384, 712.191656)"><g><path d="M 5.191406 0 L 16.859375 0 C 28.597656 0 38.199219 -9.53125 38.199219 -21.339844 C 38.199219 -33.148438 28.597656 -42.683594 16.859375 -42.683594 L 5.191406 -42.683594 Z M 9.675781 -4.554688 L 9.675781 -38.128906 L 16.789062 -38.128906 C 26.25 -38.128906 33.648438 -30.945312 33.648438 -21.339844 C 33.648438 -11.738281 26.25 -4.554688 16.789062 -4.554688 Z M 9.675781 -4.554688 "/></g></g></g><g fill="#ffffff" fill-opacity="1"><g transform="translate(747.688342, 712.191656)"><g/></g></g><g fill="#ffffff" fill-opacity="1"><g transform="translate(783.898454, 712.191656)"><g><path d="M 5.546875 0 L 10.101562 0 L 10.101562 -42.683594 L 5.546875 -42.683594 Z M 5.546875 0 "/></g></g></g><g fill="#ffffff" fill-opacity="1"><g transform="translate(818.543655, 712.191656)"><g><path d="M 48.941406 -4.269531 L 42.539062 -4.269531 L 36.28125 -2.277344 C 42.894531 -6.046875 47.304688 -13.160156 47.304688 -21.339844 C 47.304688 -33.433594 37.5625 -43.25 25.394531 -43.25 C 13.300781 -43.25 3.484375 -33.433594 3.484375 -21.339844 C 3.484375 -9.246094 13.300781 0.570312 25.394531 0.570312 C 27.101562 0.570312 28.8125 0.355469 30.375 0 L 48.941406 0 Z M 8.039062 -21.339844 C 8.039062 -31.015625 15.792969 -38.699219 25.394531 -38.699219 C 35.070312 -38.699219 42.753906 -31.015625 42.753906 -21.339844 C 42.753906 -11.667969 35.070312 -3.984375 25.394531 -3.984375 C 15.792969 -3.984375 8.039062 -11.667969 8.039062 -21.339844 Z M 8.039062 -21.339844 "/></g></g></g><g fill="#ffffff" fill-opacity="1"><g transform="translate(888.755306, 712.191656)"><g><path d="M 26.25 -21.625 C 30.019531 -23.332031 32.511719 -26.746094 32.511719 -31.300781 C 32.511719 -37.988281 27.246094 -42.683594 20.699219 -42.683594 L 5.191406 -42.683594 L 5.191406 0 L 22.195312 0 C 28.667969 0 33.863281 -4.625 33.863281 -11.238281 C 33.863281 -16.433594 30.730469 -20.132812 26.25 -21.625 Z M 27.957031 -30.945312 C 27.957031 -26.746094 24.472656 -23.546875 20.203125 -23.546875 L 9.675781 -23.546875 L 9.675781 -38.128906 L 20.203125 -38.128906 C 24.472656 -38.128906 27.957031 -35.140625 27.957031 -30.945312 Z M 21.625 -4.554688 L 9.675781 -4.554688 L 9.675781 -19.136719 L 21.625 -19.136719 C 25.824219 -19.136719 29.308594 -15.933594 29.308594 -11.738281 C 29.308594 -7.539062 25.824219 -4.554688 21.625 -4.554688 Z M 21.625 -4.554688 "/></g></g></g><g fill="#ffffff" fill-opacity="1"><g transform="translate(945.024896, 712.191656)"><g><path d="M 30.945312 0 L 35.925781 0 L 20.488281 -42.683594 L 15.4375 -42.683594 L 0 0 L 4.980469 0 L 8.464844 -9.960938 L 27.460938 -9.960938 Z M 9.960938 -14.296875 L 17.996094 -37.277344 L 25.964844 -14.296875 Z M 9.960938 -14.296875 "/></g></g></g><g fill="#ffffff" fill-opacity="1"><g transform="translate(1000.014075, 712.191656)"><g><path d="M 9.746094 -4.554688 L 9.746094 -42.683594 L 5.191406 -42.683594 L 5.191406 0 L 25.609375 0 L 25.609375 -4.554688 Z M 9.746094 -4.554688 "/></g></g></g></svg>